HIERARCHY
ROOT Hips
{
	OFFSET 0.000000 0.000000 0.000000
	CHANNELS 6 Xposition Yposition Zposition Zrotation Xrotation Yrotation
	JOINT RightUpLeg
	{
		OFFSET -10.032200 0.000000 0.000000
		CHANNELS 3 Zrotation Xrotation Yrotation
		JOINT RightLeg
		{
			OFFSET 0.000000 -40.977000 0.000000
			CHANNELS 3 Zrotation Xrotation Yrotation
			JOINT RightFoot
			{
				OFFSET 0.000000 -38.933200 0.000000
				CHANNELS 3 Zrotation Xrotation Yrotation
				JOINT RightToe
				{
					OFFSET 0.000000 -1.977400 9.184000
					CHANNELS 3 Zrotation Xrotation Yrotation
					JOINT RightToeEnd
					{
						OFFSET 0.000000 2.335600 6.099100
						CHANNELS 3 Zrotation Xrotation Yrotation
						End Site
						{
						    OFFSET 0.000000 1.788000 4.669400
						}
					}
				}
			}
		}
	}
	JOINT LeftUpLeg
	{
		OFFSET 10.032200 0.000000 0.000000
		CHANNELS 3 Zrotation Xrotation Yrotation
		JOINT LeftLeg
		{
			OFFSET 0.000000 -40.977000 0.000000
			CHANNELS 3 Zrotation Xrotation Yrotation
			JOINT LeftFoot
			{
				OFFSET 0.000000 -38.933200 0.000000
				CHANNELS 3 Zrotation Xrotation Yrotation
				JOINT LeftToe
				{
					OFFSET 0.000000 -1.977400 9.184000
					CHANNELS 3 Zrotation Xrotation Yrotation
					JOINT LeftToeEnd
					{
						OFFSET 0.000000 2.335600 6.099100
						CHANNELS 3 Zrotation Xrotation Yrotation
						End Site
						{
						    OFFSET 0.000000 1.788000 4.669400
						}
					}
				}
			}
		}
	}
	JOINT Spine
	{
		OFFSET 0.000000 16.960900 0.000000
		CHANNELS 3 Zrotation Xrotation Yrotation
		JOINT Spine1
		{
			OFFSET 0.000000 13.413900 0.000000
			CHANNELS 3 Zrotation Xrotation Yrotation
			JOINT Spine2
			{
				OFFSET 0.000000 10.384400 0.000000
				CHANNELS 3 Zrotation Xrotation Yrotation
				JOINT LeftShoulder
				{
					OFFSET 2.000000 10.384400 0.000000
					CHANNELS 3 Zrotation Xrotation Yrotation
					JOINT LeftArm
					{
						OFFSET 15.649100 0.000000 0.000000
						CHANNELS 3 Zrotation Xrotation Yrotation
						JOINT LeftForeArm
						{
							OFFSET 0.000000 -26.641600 0.000000
							CHANNELS 3 Zrotation Xrotation Yrotation
							JOINT LeftHand
							{
								OFFSET 0.000000 -23.740600 0.000000
								CHANNELS 3 Zrotation Xrotation Yrotation
								JOINT LeftFinger0
								{
									OFFSET 0.000000 -7.620900 0.000000
									CHANNELS 3 Zrotation Xrotation Yrotation
									End Site
									{
									    OFFSET 0.000000 -5.000000 0.000000
									}
								}
							}
						}
					}
				}
				JOINT RightShoulder
				{
					OFFSET -2.000000 10.384400 0.000000
					CHANNELS 3 Zrotation Xrotation Yrotation
					JOINT RightArm
					{
						OFFSET -15.649100 0.000000 0.000000
						CHANNELS 3 Zrotation Xrotation Yrotation
						JOINT RightForeArm
						{
							OFFSET 0.000000 -26.641600 0.000000
							CHANNELS 3 Zrotation Xrotation Yrotation
							JOINT RightHand
							{
								OFFSET 0.000000 -23.740600 0.000000
								CHANNELS 3 Zrotation Xrotation Yrotation
								JOINT RightFinger0
								{
									OFFSET 0.000000 -7.620900 0.000000
									CHANNELS 3 Zrotation Xrotation Yrotation
									End Site
									{
									    OFFSET 0.000000 -5.000000 0.000000
									}
								}
							}
						}
					}
				}
				JOINT Neck
				{
					OFFSET 0.000000 10.384400 0.000000
					CHANNELS 3 Zrotation Xrotation Yrotation
					JOINT Head
					{
						OFFSET 0.000000 10.146900 0.000000
						CHANNELS 3 Zrotation Xrotation Yrotation
						JOINT HeadTip
						{
							OFFSET 0.000000 10.000000 0.000000
							CHANNELS 3 Zrotation Xrotation Yrotation
							End Site
							{
							    OFFSET 0.000000 5.000000 0.000000
							}
						}
					}
				}
			}
		}
	}
}
MOTION
Frames:	4
Frame Time:	0.033332
-177.473600 86.287100 -27.602600 -0.725443 -1.826010 0.324368 -0.982358 -2.988426 -27.928131 0.000000 8.895452 -0.000000 4.366140 13.727555 -3.546041 -0.000000 0.875669 -0.000000 -0.000000 0.000000 -0.000000 2.230080 -5.235999 29.147861 0.000000 11.223785 -0.000000 0.849196 14.804936 -5.326881 0.000000 -2.405577 -0.000000 0.000000 -0.000000 -0.000000 1.367304 0.238618 0.078248 -0.000000 2.493458 -0.000000 0.000000 0.000000 0.000000 0.435178 0.000000 3.712597 86.582914 -7.903736 14.503103 0.000000 -10.535217 0.000000 0.478496 13.152032 -18.036504 0.000000 0.000000 -0.000000 -4.437923 -0.000000 -2.417380 -88.373580 -17.982939 -14.767989 -0.000010 -3.891287 -0.000000 -1.227747 18.288123 25.929349 -0.000000 0.000000 -0.000000 0.000000 0.000000 0.000000 -2.831806 3.527591 3.649128 0.000000 0.000000 -0.000000 
-177.486000 86.281700 -27.583100 -0.722256 -1.863736 0.287446 -0.979410 -2.948088 -27.887060 0.000000 8.910749 -0.000000 4.419383 13.676248 -3.548856 0.000000 0.885079 -0.000000 -0.000000 0.000000 0.000000 2.241321 -5.196135 29.132405 -0.000000 11.256691 -0.000000 0.834547 14.782311 -5.264444 -0.000000 -2.452222 0.000000 -0.000000 -0.000000 -0.000000 1.343807 0.208739 0.080085 -0.000000 2.502211 -0.000000 0.000000 0.000000 0.000000 0.381400 -0.000000 3.702836 86.598388 -7.973113 14.492081 -0.000000 -10.628161 -0.000000 0.020075 13.023749 -18.064019 -0.000000 0.000000 0.000000 -4.444639 0.000000 -2.427999 -88.408036 -17.937715 -14.761234 -0.000010 -3.870093 -0.000000 -0.974131 18.059174 26.171728 -0.000000 0.000000 -0.000000 0.000000 0.000000 0.000000 -2.715314 3.640430 3.669285 0.000000 0.000000 -0.000000 
-177.506500 86.277400 -27.572500 -0.720128 -1.890940 0.249658 -0.963313 -2.921154 -27.844582 0.000000 8.914000 -0.000000 4.364370 13.648986 -3.557682 -0.000000 0.903514 -0.000000 0.000000 -0.000000 -0.000000 2.255026 -5.173169 29.103962 -0.000000 11.277209 -0.000000 0.800996 14.774699 -5.222482 -0.000000 -2.512682 -0.000000 0.000000 0.000000 -0.000000 1.304491 0.190385 0.075815 -0.000000 2.509376 -0.000000 -0.000000 0.000000 -0.000000 0.368182 0.000000 3.710951 86.601591 -8.083235 14.557323 -0.000000 -10.637711 -0.000000 -0.367156 12.804653 -18.145470 0.000000 0.000000 -0.000000 -4.439360 0.000000 -2.461069 -88.407402 -17.944430 -14.648487 -0.000010 -3.930437 -0.000000 -0.943332 18.150506 26.205861 -0.000000 0.000000 -0.000000 -0.000000 0.000000 -0.000000 -2.611186 3.678578 3.665494 -0.000000 0.000000 0.000000 
-177.523900 86.275700 -27.569000 -0.720687 -1.912837 0.209874 -0.955757 -2.915645 -27.808582 -0.000000 8.946179 -0.000000 4.352617 13.641018 -3.549149 -0.000000 0.904681 -0.000000 0.000000 0.000000 -0.000000 2.271206 -5.145122 29.144033 -0.000000 11.293597 0.000000 0.850299 14.727270 -5.203248 -0.000000 -2.432178 0.000000 0.000000 0.000000 0.000000 1.271071 0.170251 0.069604 0.000000 2.504967 0.000000 -0.000000 -0.000000 0.000000 0.367440 0.000000 3.680501 86.603757 -8.116893 14.430551 0.000000 -10.692583 -0.000000 -0.407329 12.594051 -18.037979 -0.000000 0.000000 -0.000000 -4.420833 -0.000000 -2.442120 -88.425870 -17.898084 -14.536022 -0.000011 -4.003676 -0.000000 -0.813658 18.234165 26.353396 0.000000 -0.000000 -0.000000 -0.000000 -0.000000 0.000000 -2.560355 3.737857 3.641619 -0.000000 0.000000 -0.000000 
